<svg xmlns="http://www.w3.org/2000/svg" version="1.1" xmlns:xlink="http://www.w3.org/1999/xlink" width="512" height="512" x="0" y="0" viewBox="0 0 512 512" style="enable-background:new 0 0 512 512" xml:space="preserve" class=""><circle r="256" cx="256" cy="256" fill="#F1CE90" shape="circle"></circle><g transform="matrix(0.6499999999999998,0,0,0.6499999999999998,89.60000000000005,89.60000000000005)"><path fill-rule="evenodd" d="M274.766 423.402a8 8 0 0 1 0 16H80.598a8 8 0 0 1 0-16zm0-265.512H80.598a8 8 0 0 0-8 8v102.924l78.39-45.846a7.97 7.97 0 0 1 10.312 1.969l22.649 28.904 36.779-23.486a7.971 7.971 0 0 1 9.395.607l52.643 43.903V165.89a8 8 0 0 0-8-8zm-74.68 63.816c-6.075 0-11-4.925-11-11s4.925-11 11-11 11 4.925 11 11-4.924 11-11 11zm82.68 73.962-58.4-48.73-62.789 40.094a7.967 7.967 0 0 1-8.562-13.438l17.438-11.135-17.415-22.225L72.6 287.278v23.203a8 8 0 0 0 8 8h194.168a8 8 0 0 0 8-8v-14.813zM469.73 9H42.27C23.971 9 9 23.971 9 42.27v36.022h494V42.27C503 23.971 488.029 9 469.73 9zM55.251 55.67c-6.641 0-12.024-5.383-12.024-12.024s5.383-12.024 12.024-12.024 12.024 5.384 12.024 12.024S61.892 55.67 55.251 55.67zm44.06 0c-6.641 0-12.024-5.383-12.024-12.024s5.384-12.024 12.024-12.024 12.024 5.384 12.024 12.024-5.383 12.024-12.024 12.024zm44.06 0c-6.641 0-12.024-5.383-12.024-12.024s5.383-12.024 12.024-12.024 12.024 5.384 12.024 12.024-5.384 12.024-12.024 12.024zm310.852-4.024H309.424a8 8 0 0 1 0-16h144.799a8 8 0 0 1 0 16zM9 94.292V469.73C9 488.029 23.971 503 42.27 503h427.46c18.299 0 33.27-14.971 33.27-33.27V94.292zm462.402 377.11H40.598V125.889h430.805v345.513zM314.766 370.299h116.467a8 8 0 0 1 8 8v53.102a8 8 0 0 1-8 8H314.766a8 8 0 0 1-8-8v-53.102a8 8 0 0 1 8-8zM431.403 157.89a8 8 0 0 1 0 16H314.766a8 8 0 0 1 0-16zm-.035 53.103a8 8 0 0 1 0 16h-114.17a8 8 0 0 1 0-16zm-.033 53.102a8 8 0 0 1 0 16H314.766a8 8 0 0 1 0-16zm-.034 53.102a8 8 0 0 1 0 16H314.766a8 8 0 0 1 0-16zm-156.535 53.102a8 8 0 0 1 0 16H80.632a8 8 0 0 1 0-16z" clip-rule="evenodd" fill="#833375" opacity="1" data-original="#000000" class=""></path></g></svg>