<svg clip-rule="evenodd" fill-rule="evenodd" height="512" image-rendering="optimizeQuality" shape-rendering="geometricPrecision" text-rendering="geometricPrecision" viewBox="0 0 512 512" width="512" xmlns="http://www.w3.org/2000/svg" xmlns:xodm="http://www.corel.com/coreldraw/odm/2003"><g id="Layer_x0020_1"><path d="m256 0c141.39 0 256 114.61 256 256s-114.61 256-256 256-256-114.61-256-256 114.61-256 256-256zm-114.04 374.81h49.03v-158.41h-49.03zm24.28-179.15c16.02 0 29-13.1 29-29.24s-12.98-29.23-29-29.23-28.99 13.09-28.99 29.23 12.97 29.24 28.99 29.24zm103.13 96c0-22.27 10.26-35.55 29.89-35.55 18.02 0 26.69 12.74 26.69 35.55v83.15h48.8s0-57.87 0-100.3-24.05-62.95-57.64-62.95c-33.6 0-47.74 26.18-47.74 26.18v-21.34h-47.03v158.41h47.03s0-58.75 0-83.15z"/></g></svg>