<svg xmlns="http://www.w3.org/2000/svg" version="1.1" xmlns:xlink="http://www.w3.org/1999/xlink" width="512" height="512" x="0" y="0" viewBox="0 0 50 50" style="enable-background:new 0 0 512 512" xml:space="preserve" class=""><circle r="25" cx="25" cy="25" fill="#F1CE90" shape="circle"></circle><g transform="matrix(0.7,0,0,0.7,7.4989048004150405,7.5)"><path d="M17.59 36.37v6.81c0 .27-.22.5-.5.5h-3.74c-.27 0-.5-.23-.5-.5v-6.81c0-.28.23-.5.5-.5h3.74c.28 0 .5.22.5.5zM24.17 33.85v9.33c0 .27-.23.5-.5.5h-3.75c-.27 0-.5-.23-.5-.5v-9.33c0-.28.23-.5.5-.5h3.75c.27 0 .5.22.5.5zM25.56 21.51c.28 0 .5-.22.5-.5s-.22-.5-.5-.5h-5.7c-.28 0-.5.22-.5.5s.22.5.5.5zM13.16 21.51h4.25c.28 0 .5-.22.5-.5s-.22-.5-.5-.5h-4.25c-.28 0-.5.22-.5.5s.22.5.5.5zM29.64 23.3c0-.28-.22-.5-.5-.5h-5.27c-.28 0-.5.22-.5.5s.22.5.5.5h5.27c.28 0 .5-.22.5-.5zM13.16 23.8h8.18c.28 0 .5-.22.5-.5s-.22-.5-.5-.5h-8.18c-.28 0-.5.22-.5.5s.22.5.5.5zM25.66 25.59c0-.28-.22-.5-.5-.5h-4.93c-.28 0-.5.22-.5.5s.22.5.5.5h4.93c.27 0 .5-.22.5-.5zM13.16 26.09h4.59c.28 0 .5-.22.5-.5s-.22-.5-.5-.5h-4.59c-.28 0-.5.22-.5.5s.22.5.5.5zM29.64 27.88c0-.28-.22-.5-.5-.5h-4.93c-.28 0-.5.22-.5.5s.22.5.5.5h4.93c.28 0 .5-.23.5-.5zM13.16 28.38h8.54c.28 0 .5-.22.5-.5s-.22-.5-.5-.5h-8.54c-.28 0-.5.22-.5.5s.22.5.5.5zM18.59 29.67h-5.43c-.28 0-.5.22-.5.5s.22.5.5.5h5.43c.28 0 .5-.22.5-.5s-.22-.5-.5-.5z" fill="#833375" opacity="1" data-original="#000000"></path><path d="m48.7 37.87-3.29-7.3a.508.508 0 0 0-.63-.27l-.68.25-.54-1.48c.31-.16.61-.32.9-.52 4.07-2.77 5.14-8.34 2.37-12.42a8.836 8.836 0 0 0-4.15-3.3V2.84c0-.27-.22-.5-.5-.5H7.98c-.28 0-.5.23-.5.5v2.74H4.74c-.28 0-.5.22-.5.5v2.2H1.5c-.28 0-.5.22-.5.5v32.45c0 .28.22.5.5.5h2.74v2.2c0 .28.22.5.5.5h2.74v2.73c0 .28.22.5.5.5h34.2c.28 0 .5-.22.5-.5v-6.5c.32.66.83 1.21 1.48 1.54.47.24.99.37 1.51.37.39 0 .77-.07 1.14-.2.87-.32 1.57-.99 1.92-1.84.36-.85.35-1.82-.03-2.66zM7.48 43.43H5.24V6.58h2.24zm34.2-5.75v8.98H8.48V3.34h33.2v9.17c-.19-.05-.37-.1-.57-.14-2.34-.44-4.72.05-6.69 1.39-4.08 2.77-5.14 8.34-2.38 12.42a8.863 8.863 0 0 0 5.72 3.76 8.899 8.899 0 0 0 2.95.07l.58 1.57-.68.25c-.25.09-.38.35-.31.6l1.42 5.05c-.02.06-.04.13-.04.2zm.79-12.04a5.39 5.39 0 0 1-4.05.84 5.357 5.357 0 0 1-3.45-2.27c-1.67-2.48-1.03-5.85 1.44-7.53.9-.62 1.95-.94 3.02-.94.34 0 .68.03 1.02.09 1.42.27 2.64 1.08 3.45 2.28 1.68 2.47 1.03 5.85-1.43 7.53z" fill="#833375" opacity="1" data-original="#000000"></path><path d="M36.36 10.16c-.11.6-.45 1.12-.96 1.45-.38.26-.81.39-1.26.39-.14 0-.29-.02-.44-.05a2.16 2.16 0 0 1-1.12-.58l-4.92 3.31c.13.37.17.77.09 1.18-.11.6-.45 1.11-.96 1.45-.37.25-.81.38-1.25.38-.15 0-.3-.01-.45-.04a2.28 2.28 0 0 1-1.47-3.47l-1.56-2.33c-.29.12-.59.21-.9.21-.15 0-.3-.01-.45-.04-.43-.09-.8-.29-1.1-.57l-2.57 1.74c.09.32.12.67.05 1.03-.12.6-.46 1.11-.96 1.45-.38.25-.81.38-1.26.38-.15 0-.29-.01-.44-.04-1.23-.25-2.04-1.44-1.8-2.67.12-.6.46-1.11.97-1.45.5-.34 1.1-.46 1.7-.34.51.1.95.38 1.27.75l2.47-1.67a2.22 2.22 0 0 1-.12-1.28c.11-.6.45-1.11.96-1.45.5-.34 1.1-.46 1.7-.34 1.23.24 2.03 1.44 1.79 2.67-.07.39-.25.73-.5 1.03l1.48 2.22c.49-.29 1.05-.4 1.61-.29.47.09.87.32 1.18.64l4.88-3.29c-.15-.39-.2-.82-.11-1.26.11-.59.45-1.11.96-1.44.5-.34 1.11-.46 1.7-.34a2.27 2.27 0 0 1 1.79 2.66zM30.74 37.68v5.5c0 .27-.23.5-.5.5H26.5c-.28 0-.5-.23-.5-.5v-5.5c0-.28.22-.5.5-.5h3.74c.27 0 .5.22.5.5zM37.31 31.59v11.59c0 .27-.22.5-.5.5h-3.74c-.28 0-.5-.23-.5-.5V31.59c0-.28.22-.5.5-.5h3.74c.28 0 .5.22.5.5z" fill="#833375" opacity="1" data-original="#000000"></path></g></svg>