<svg xmlns="http://www.w3.org/2000/svg" version="1.1" xmlns:xlink="http://www.w3.org/1999/xlink" width="512" height="512" x="0" y="0" viewBox="0 0 512 512" style="enable-background:new 0 0 512 512" xml:space="preserve"><g><path d="M462.735 365.214H49.311c-6.003 0-10.869 4.866-10.869 10.869v56.366c0 6.003 4.866 10.869 10.869 10.869h413.424c6.003 0 10.869-4.866 10.869-10.869v-56.366c0-6.003-4.866-10.869-10.869-10.869zM220.16 270.388c0-6.972-5.719-12.691-12.745-12.691s-12.691 5.719-12.691 12.691c0 7.026 5.664 12.745 12.691 12.745 7.026 0 12.745-5.719 12.745-12.745zM212.644 295.77c-4.956 4.956-4.956 13.018 0 17.974 4.957 4.957 13.018 4.957 17.974 0a12.624 12.624 0 0 0 0-17.974c-4.956-4.957-12.963-4.957-17.974 0zM212.644 227.032a12.79 12.79 0 0 0 0 18.029c5.011 4.956 13.072 4.956 18.029 0 4.957-4.957 4.957-13.018-.054-17.974-4.957-4.957-13.018-4.957-17.975-.055zM256 306.282a12.669 12.669 0 0 0-12.691 12.691c0 7.026 5.665 12.745 12.691 12.745s12.691-5.719 12.691-12.745A12.669 12.669 0 0 0 256 306.282zM256 234.548a12.67 12.67 0 0 0 12.691-12.691c0-7.081-5.665-12.745-12.691-12.745s-12.691 5.664-12.691 12.745A12.669 12.669 0 0 0 256 234.548zM256 249.363c-11.602 0-21.024 9.423-21.024 21.025 0 11.656 9.423 21.024 21.024 21.024 11.602 0 21.024-9.369 21.024-21.024 0-11.602-9.422-21.025-21.024-21.025zM281.382 295.77a12.624 12.624 0 0 0 0 17.974c4.957 4.957 13.018 4.957 17.974 0 4.956-4.956 4.956-13.018 0-17.974-5.011-4.957-13.018-4.957-17.974 0zM299.356 245.061a12.79 12.79 0 0 0 0-18.029c-4.957-4.902-13.018-4.902-17.974.055-5.011 4.956-5.011 13.017-.054 17.974 4.956 4.956 13.017 4.956 18.028 0zM291.84 270.388c0 7.026 5.719 12.745 12.745 12.745s12.691-5.719 12.691-12.745c0-6.972-5.664-12.691-12.691-12.691-7.026 0-12.745 5.719-12.745 12.691z" fill="#000000" opacity="1" data-original="#000000"></path><path d="m305.892 140.538-9.096 36.057c-2.288 6.536-8.442 11.002-15.414 11.002h-50.273c-6.972 0-13.126-4.466-15.414-11.002l-9.096-36.112a495.778 495.778 0 0 0-42.866 6.264v32.135c0 5.447-2.723 10.458-7.19 13.562-57.79 39.652-81.483 79.25-101.363 161.877h401.696c-19.881-82.463-43.411-122.007-100.928-161.55-4.466-3.105-7.189-8.116-7.189-13.508v-32.408c-14.217-2.777-28.488-4.846-42.867-6.317zM256 340.324c-38.617 0-69.936-31.264-69.936-69.936 0-38.563 31.319-69.936 69.936-69.936s69.936 31.373 69.936 69.936c0 38.672-31.319 69.936-69.936 69.936z" fill="#000000" opacity="1" data-original="#000000"></path><path d="M466.462 109.655c-134.861-54.631-286.062-54.631-420.923 0-39.053 15.795-56.156 61.003-38.727 98.259 37.583-22.168 77.888-39.271 119.882-50.709-1.144-4.085-2.288-8.17-3.377-12.31a503.109 503.109 0 0 1 265.364 0c-1.089 4.14-2.233 8.225-3.377 12.31 41.994 11.438 82.3 28.541 119.882 50.709 17.431-37.256.328-82.464-38.724-98.259z" fill="#000000" opacity="1" data-original="#000000"></path><path d="M121.308 203.691c9.308-2.94 14.597-12.72 12.021-22.136l-3.787-13.844a479.003 479.003 0 0 0-117.545 49.782l7.305 12.353c4.966 8.397 15.673 11.412 24.257 6.776a446.878 446.878 0 0 1 77.749-32.931zM378.67 181.557c-2.575 9.415 2.714 19.195 12.022 22.135a446.682 446.682 0 0 1 77.748 32.931c8.583 4.636 19.29 1.62 24.256-6.776l7.305-12.353a479.019 479.019 0 0 0-117.545-49.782l-3.786 13.845z" fill="#000000" opacity="1" data-original="#000000"></path></g></svg>