<svg xmlns="http://www.w3.org/2000/svg" version="1.1" xmlns:xlink="http://www.w3.org/1999/xlink" width="512" height="512" x="0" y="0" viewBox="0 0 512 512" style="enable-background:new 0 0 512 512" xml:space="preserve" class=""><circle r="256" cx="256" cy="256" fill="#F1CE90" shape="circle"></circle><g transform="matrix(0.7,0,0,0.7,76.80000000000001,76.80000000000001)"><path d="M437.02 74.98C388.668 26.629 324.381 0 256 0S123.332 26.629 74.98 74.98 0 187.62 0 256c0 40.951 9.384 80.084 27.891 116.312 17.646 34.542 43.406 65.145 74.498 88.498 6.623 4.975 16.025 3.64 21.002-2.984 4.975-6.624 3.639-16.026-2.984-21.002C62.951 393.667 30 327.76 30 256 30 131.383 131.383 30 256 30s226 101.383 226 226c0 71.76-32.951 137.667-90.406 180.823-6.624 4.975-7.961 14.378-2.985 21.002a14.976 14.976 0 0 0 12.005 5.992c3.136 0 6.297-.979 8.998-3.008 31.092-23.354 56.853-53.955 74.498-88.498C502.617 336.084 512 296.951 512 256c0-68.38-26.629-132.667-74.98-181.02z" fill="#833375" opacity="1" data-original="#000000" class=""></path><path d="M397.205 360.517c22.545-30.413 34.461-66.554 34.461-104.517 0-96.862-78.803-175.666-175.666-175.666S80.332 159.138 80.332 256c0 37.964 11.918 74.105 34.465 104.518 2.942 3.97 7.473 6.067 12.061 6.067a14.94 14.94 0 0 0 8.922-2.951c6.655-4.934 8.051-14.328 3.117-20.983-18.688-25.205-28.564-55.168-28.564-86.65 0-80.32 65.347-145.666 145.668-145.666 80.32 0 145.666 65.346 145.666 145.666 0 31.481-9.876 61.445-28.562 86.651-4.933 6.655-3.538 16.049 3.118 20.982 6.653 4.933 16.048 3.537 20.982-3.117z" fill="#833375" opacity="1" data-original="#000000" class=""></path><path d="M256 160.667c-52.566 0-95.334 42.767-95.334 95.333 0 52.567 42.768 95.334 95.334 95.334s95.332-42.767 95.332-95.334c0-52.566-42.766-95.333-95.332-95.333zM256 381.334c-27.76 0-53.436-9.078-74.229-24.412-13.193 16.357-21.105 37.144-21.105 59.745V497c0 8.284 6.717 15 15 15h160.666c8.285 0 15-6.716 15-15v-80.333c0-22.602-7.91-43.388-21.104-59.745-20.792 15.334-46.468 24.412-74.228 24.412z" fill="#833375" opacity="1" data-original="#000000" class=""></path></g></svg>