<svg xmlns="http://www.w3.org/2000/svg" version="1.1" xmlns:xlink="http://www.w3.org/1999/xlink" width="512" height="512" x="0" y="0" viewBox="0 0 24 24" style="enable-background:new 0 0 512 512" xml:space="preserve" class=""><g><path d="m14.8 16.3-2.8-.6-.2-.8c.7-.7 1.2-1.7 1.4-2.8.4-.2.8-.5.8-1l.2-1.5c0-.4-.1-.7-.3-1-.1-.1-.3-.2-.4-.3l.1-1.3.2-.2c.4-.5.8-1.3.1-2.5-.6-.9-1.6-1.3-3-1.3-.5 0-1.7 0-2.8.7-3.2.1-3.7 1.7-3.7 3.1 0 .3.1 1 .1 1.4-.1.1-.3.2-.4.4-.2.3-.3.6-.3 1L4 11c.1.5.4.9.9 1 .2 1 .6 2 1.3 2.7l-.2 1-2.8.7c-1.9.4-3.2 2.1-3.2 4.1 0 .1.1.3.1.4s.3.1.4.1h17c.3 0 .5-.2.5-.5 0-2-1.3-3.7-3.2-4.2zM1 20c.2-1.3 1.1-2.4 2.5-2.7l3-.8c.2 0 .3-.2.4-.4l.4-1.4c0-.2 0-.4-.1-.5-.7-.7-1.2-1.7-1.3-2.7 0-.3-.2-.5-.5-.5h-.2c-.1.1-.2 0-.2-.1l-.2-1.5c0-.1 0-.2.1-.2 0 0 .1-.1.3-.1.1 0 .3-.1.4-.2.1-.1.1-.3.1-.4 0-.4-.2-1.4-.2-1.8 0-.9 0-2.1 2.8-2.1.1 0 .2 0 .3-.1.7-.4 1.6-.5 2.3-.5 1 0 1.7.3 2.1.9.4.7.3 1 .1 1.2l-.4.4c-.1.1-.1.2-.1.3l-.1 1.9c0 .1 0 .3.1.4.1.1.2.2.4.2.1 0 .2.1.2.1s.1.1.1.2l-.3 1.3c0 .1-.1.2-.3.2-.3 0-.5.2-.5.5-.1 1-.6 2-1.3 2.7-.1.1-.2.3-.2.5l.3 1.4c0 .2.2.3.4.4l3 .8c1.3.3 2.3 1.4 2.4 2.7L1 20zm19.8-3.7-2.8-.6-.1-.4c1.9-.3 2.9-.9 2.9-.9.1-.1.2-.2.2-.4s-.1-.3-.2-.4c0 0-1.3-1.1-1.3-4.8 0-3.3-.8-4.9-2.3-4.9H17c-.5-.5-1-.7-1.9-.7-.2 0-.4.1-.4.3-.1.2-.1.4 0 .5h.5c.7 0 .9.2 1.3.6.1.1.2.1.4.1h.4c.9 0 1.3 1.4 1.3 3.9 0 2.8.7 4.3 1.2 5-.5.2-1.4.5-2.5.6-.1 0-.3.1-.3.2-.1.1-.1.3-.1.4l.3 1.3c0 .2.2.3.4.4l3 .8c1.3.3 2.3 1.4 2.5 2.7h-3.5v1h4c.3 0 .5-.2.5-.5-.1-2-1.4-3.7-3.3-4.2z" fill="#ffffff" opacity="1" data-original="#000000"></path></g></svg>